<?xml version="1.0" encoding="utf-8"?>
<!-- Generator: Adobe Illustrator 26.0.2, SVG Export Plug-In . SVG Version: 6.00 Build 0)  -->
<svg version="1.1" id="Calque_1" xmlns="http://www.w3.org/2000/svg" xmlns:xlink="http://www.w3.org/1999/xlink" x="0px" y="0px"
	 viewBox="0 0 40 40" style="enable-background:new 0 0 40 40;" xml:space="preserve">
<style type="text/css">
	.st0{fill:#5D6061;}
	.st1{fill:#EF8A1D;}
	.st2{fill:#EC4A47;}
	.st3{fill:#FFFFFF;}
	.st4{fill:none;stroke:#FFFFFF;stroke-miterlimit:10;}
</style>
<path class="st2" d="M29.21,13.94c0,0.32-0.26,0.58-0.58,0.58H11.25c-0.32,0-0.58-0.26-0.58-0.58s0.26-0.58,0.58-0.58h0.26
	c0.26-4.08,2.85-7.52,6.35-8.49c0-0.71,0.65-1.36,1.36-1.36h1.43c0.78,0,1.36,0.58,1.36,1.36c3.57,0.97,6.09,4.47,6.29,8.49h0.26
	C29.01,13.35,29.21,13.61,29.21,13.94L29.21,13.94z"/>
<path class="st0" d="M21.75,23.67V26c0,1.1-0.71,2.01-1.62,2.07c-1.1,0.06-1.94-0.84-1.94-1.94v-2.45"/>
<path class="st0" d="M15.01,32.67h9.92v3.83h-9.92V32.67z"/>
<path class="st0" d="M26.94,27.68l-1.75,3.57H14.75L13,27.62c1.23-0.39,2.4-0.65,3.89-0.78c0.32,1.49,1.56,2.53,3.11,2.53h0.26
	c1.36-0.13,2.46-1.17,2.79-2.53C24.47,27.03,25.64,27.29,26.94,27.68L26.94,27.68z"/>
<path class="st0" d="M12.41,15.69v1.3c0,4.28,3.57,7.52,7.52,7.52c4.02,0,7.52-3.24,7.52-7.52v-1.3H12.41z"/>
<path class="st0" d="M32.45,32.67v2.92c0,0.52-0.39,0.91-0.91,0.91h-5.19v-4.34l1.94-4.02c0.52,0.19,0.97,0.32,1.56,0.58
	C31.41,29.3,32.45,30.86,32.45,32.67L32.45,32.67z"/>
<path class="st0" d="M11.7,28.14l1.94,4.02v4.34H8.46c-0.52,0-0.91-0.39-0.91-0.91v-2.92c0-1.82,1.04-3.37,2.66-3.95
	C10.73,28.53,11.18,28.33,11.7,28.14L11.7,28.14z"/>
</svg>
