<?xml version="1.0" encoding="utf-8"?>
<!-- Generator: Adobe Illustrator 26.0.2, SVG Export Plug-In . SVG Version: 6.00 Build 0)  -->
<svg version="1.1" id="Calque_1" xmlns="http://www.w3.org/2000/svg" xmlns:xlink="http://www.w3.org/1999/xlink" x="0px" y="0px"
	 viewBox="0 0 575 115" style="enable-background:new 0 0 575 115;" xml:space="preserve">
<style type="text/css">
	.st0{fill:#FFFFFF;}
	.st1{fill:url(#SVGID_1_);}
</style>
<g>
	<path class="st0" d="M178.9,48.4c0,6.4-2.4,11.3-7.1,15.1c-4.7,3.6-10.7,5.5-18,5.5c-5.9,0-11.3-1.6-16.8-4.8
		c-2.7-1.6-4.8-4-6.5-7.1s-2.7-6.4-2.7-10.4l12-0.5c0,3.3,1.5,6.1,4.4,8s6.1,2.9,9.7,2.9c7.9,0,12-2.8,12-8.3c0-4.5-2.8-7.3-8-8
		l-11.1-1.2c-5.6-0.9-9.9-2.8-13.2-5.9c-3.2-3.1-4.8-7.6-4.8-13.5s2.4-10.7,7.1-14.4s10.5-5.7,17.5-5.7c7.1,0,12.7,1.7,17.1,5.5
		s6.4,8.1,6.4,13.9L165,20c-1.1-5.6-4.8-8.3-11.1-8.3c-4,0-6.8,0.9-9.1,2.5s-3.3,3.6-3.3,5.9c0,2.1,0.7,4.1,2.4,5.5
		c1.6,1.3,3.5,2,5.9,2.5l10.8,1.2C172.8,30.4,178.9,36.9,178.9,48.4z"/>
	<path class="st0" d="M237.1,0.1l-20.4,40V68h-13.2V40.3l-20.4-40h14.3L210,27.6l12.4-27.4C222.6,0.1,237.1,0.1,237.1,0.1z"/>
	<path class="st0" d="M300.4,0.1v61c0,2-0.5,4-1.9,5.5c-1.3,1.5-2.8,2.1-4.5,2.1c-4.4,0-8-2.5-10.8-7.6l-23.3-36.7V68h-13.3V0.1
		h12.7l27.8,44.4V0.1H300.4z"/>
	<path class="st0" d="M363.5,68h-24c-7.6,0-13.1-1.3-16.1-4c-3.1-2.7-4.7-7.3-4.7-14V0.1h44.7V12h-31.5v16h22l-1.1,11.9h-21.1v9.5
		c0,2.7,0.5,4.5,1.7,5.6s3.3,1.5,6.5,1.5H363V68H363.5z"/>
	<path class="st0" d="M428.3,67.9H413l-13.3-25.1h-9.5v25.1h-13.3V14.6c0-5.1,1.2-8.8,3.5-11.1c2.4-2.4,6.3-3.5,11.9-3.5h11.2
		c6.7,0,12.1,2,16.1,6.1s6,9.3,6,15.6c0,4.5-1.2,8.5-3.5,11.9c-2.4,3.3-5.2,5.7-8.8,6.8L428.3,67.9z M409.6,28.8
		c1.7-1.9,2.8-4.4,2.8-7.3s-0.9-5.2-2.7-7.1c-1.7-1.7-4.1-2.7-7.1-2.7h-6.5c-4,0-5.9,2-5.9,6v13.9h12.4
		C405.5,31.7,407.8,30.8,409.6,28.8z"/>
	<path class="st0" d="M492.2,27.4l-12.1,25.8c-1.7,3.3-4,5.1-6.5,5.1c-2.7,0-4.8-1.7-6.5-5.5l-12.4-25.5V68h-13.3V0.1h13.1
		l19.2,39.2l18.9-39.2h13.1V68h-13.3V27.4H492.2z"/>
	<path class="st0" d="M534.1,68h-13.3V0.1h13.3V68z"/>
</g>
<g>
	
		<linearGradient id="SVGID_1_" gradientUnits="userSpaceOnUse" x1="-8.4658" y1="1136.469" x2="117.197" y2="1017.9191" gradientTransform="matrix(1 0 0 1 0 -1026.5511)">
		<stop  offset="3.435824e-04" style="stop-color:#EE762E"/>
		<stop  offset="0.5816" style="stop-color:#E73D36"/>
		<stop  offset="1" style="stop-color:#86171F"/>
	</linearGradient>
	<path class="st1" d="M101.4,104.9H3.5c-1.9,0-3.5-1.6-3.5-3.5V3.5C0,1.6,1.6,0,3.5,0h97.9c1.9,0,3.5,1.6,3.5,3.5v97.9
		C104.9,103.3,103.3,104.9,101.4,104.9z"/>
	<g>
		<g>
			<path class="st0" d="M81,34.1L54.1,18.5c-1-0.6-2.3-0.6-3.4,0L23.9,34.1c-1,0.6-1.7,1.7-1.7,2.9v31c0,1.2,0.6,2.3,1.7,2.9
				l26.9,15.5c0.5,0.3,1.1,0.4,1.7,0.4s1.2-0.1,1.7-0.4l26.9-15.5c1-0.6,1.7-1.7,1.7-2.9V37C82.7,35.8,82,34.7,81,34.1z M76,66
				l-13.7,7.9v-15l4.7-7.5l-10.9,6.3l0,0l0,0v19.7l-3.7,2.1L28.9,66V38.8l23.5-13.5l23.5,13.5L76,66L76,66z"/>
		</g>
		<path class="st0" d="M43.5,54.8l-4-2.2c-0.4-0.1-0.6,0.3-0.6,0.6v7.9c0,0.3,0.2,0.7,0.6,0.9l4,2.2c0.5,0.2,0.6-0.3,0.6-0.6v-7.9
			C44.2,55.3,43.9,55,43.5,54.8z"/>
	</g>
</g>
<g>
	<path class="st0" d="M140.8,101.3c1.3,0,2.3-0.2,2.9-0.7c0.6-0.5,0.9-1.1,0.9-1.9c0-0.5-0.1-0.9-0.3-1.3s-0.5-0.7-0.9-1
		s-0.9-0.6-1.4-0.8c-0.6-0.2-1.2-0.5-1.9-0.7c-0.7-0.3-1.4-0.5-2.1-0.8c-0.7-0.3-1.2-0.7-1.7-1.1c-0.5-0.5-0.9-1-1.2-1.6
		s-0.5-1.4-0.5-2.3c0-1.9,0.6-3.3,1.9-4.4c1.3-1.1,3-1.6,5.2-1.6c1.3,0,2.4,0.1,3.4,0.4s1.8,0.6,2.4,0.9l-1.2,3
		c-0.7-0.4-1.4-0.7-2.2-0.9c-0.8-0.2-1.6-0.3-2.5-0.3c-1,0-1.8,0.2-2.4,0.6c-0.6,0.4-0.8,1-0.8,1.7c0,0.5,0.1,0.8,0.3,1.2
		c0.2,0.3,0.5,0.6,0.8,0.9s0.7,0.5,1.2,0.7s1,0.4,1.5,0.6c1,0.4,1.8,0.7,2.6,1.1s1.4,0.8,1.9,1.3s0.9,1.1,1.2,1.8
		c0.3,0.7,0.4,1.5,0.4,2.5c0,1.9-0.7,3.3-2,4.3s-3.2,1.5-5.8,1.5c-0.8,0-1.6-0.1-2.3-0.2s-1.3-0.2-1.9-0.4c-0.5-0.2-1-0.3-1.4-0.5
		s-0.7-0.3-0.9-0.5l1.1-3c0.5,0.3,1.3,0.6,2.2,0.9C138.4,101.2,139.5,101.3,140.8,101.3z"/>
	<path class="st0" d="M164.3,88.6c-1.6,5.9-3.4,11.2-5.6,16c-0.4,0.9-0.8,1.6-1.2,2.3c-0.4,0.6-0.9,1.2-1.4,1.6s-1.1,0.7-1.7,0.9
		c-0.6,0.2-1.4,0.3-2.2,0.3c-0.6,0-1.1-0.1-1.6-0.2s-1-0.2-1.2-0.4l0.7-2.9c0.7,0.3,1.4,0.4,2.1,0.4c0.9,0,1.7-0.2,2.2-0.7
		c0.5-0.4,1-1.1,1.4-2.1c-1.1-2.2-2.2-4.5-3.3-7.1c-1-2.6-2-5.3-2.8-8.2h3.8c0.2,0.8,0.4,1.7,0.7,2.7s0.6,1.9,0.9,2.9
		c0.3,1,0.7,2,1.1,3c0.4,1,0.8,1.9,1.1,2.8c0.6-1.8,1.2-3.6,1.8-5.6c0.5-2,1.1-3.9,1.5-5.8h3.7V88.6z"/>
	<path class="st0" d="M167,89.1c0.7-0.2,1.6-0.4,2.7-0.6c1.1-0.2,2.3-0.3,3.7-0.3c1.3,0,2.3,0.2,3.2,0.5c0.8,0.3,1.5,0.8,2,1.5
		c0.5,0.6,0.9,1.4,1.1,2.2c0.2,0.9,0.3,1.8,0.3,2.9v8.7h-3.6v-8c0-0.8-0.1-1.5-0.2-2.1c-0.1-0.6-0.3-1.1-0.5-1.4
		c-0.2-0.4-0.6-0.6-1-0.8c-0.4-0.2-0.9-0.3-1.6-0.3c-0.5,0-0.9,0-1.4,0.1s-0.9,0.1-1.1,0.1v12.5H167V89.1z"/>
	<path class="st0" d="M183.5,96.5c0-1.4,0.2-2.6,0.6-3.6c0.4-1,0.9-1.9,1.6-2.6c0.7-0.7,1.4-1.2,2.3-1.5c0.9-0.3,1.8-0.5,2.7-0.5
		c2.1,0,3.8,0.7,5,2s1.8,3.3,1.8,5.9c0,0.2,0,0.4,0,0.7c0,0.2,0,0.5,0,0.7h-10.2c0.1,1.2,0.5,2.2,1.3,2.9c0.8,0.7,1.9,1,3.4,1
		c0.9,0,1.7-0.1,2.4-0.2c0.7-0.2,1.3-0.3,1.7-0.5l0.5,2.9c-0.2,0.1-0.5,0.2-0.8,0.3c-0.3,0.1-0.7,0.2-1.2,0.3
		c-0.4,0.1-0.9,0.2-1.4,0.2c-0.5,0.1-1,0.1-1.6,0.1c-1.4,0-2.5-0.2-3.6-0.6c-1-0.4-1.8-1-2.5-1.7s-1.1-1.6-1.5-2.5
		C183.6,98.7,183.5,97.6,183.5,96.5z M193.9,94.9c0-0.5-0.1-1-0.2-1.4c-0.1-0.4-0.3-0.8-0.6-1.2c-0.3-0.3-0.6-0.6-1-0.8
		c-0.4-0.2-0.8-0.3-1.4-0.3c-0.6,0-1,0.1-1.5,0.3s-0.8,0.5-1.1,0.8s-0.5,0.7-0.7,1.2c-0.2,0.4-0.3,0.9-0.3,1.3h6.8V94.9z"/>
	<path class="st0" d="M210.1,91.9c-0.3-0.1-0.7-0.2-1.2-0.3c-0.5-0.1-1.1-0.2-1.8-0.2c-0.4,0-0.8,0-1.3,0.1
		c-0.4,0.1-0.8,0.1-0.9,0.2v12.4h-3.6V89.4c0.7-0.3,1.6-0.5,2.6-0.7s2.2-0.3,3.4-0.3c0.2,0,0.5,0,0.8,0s0.6,0.1,0.9,0.1
		c0.3,0,0.6,0.1,0.9,0.2c0.3,0.1,0.5,0.1,0.7,0.2L210.1,91.9z"/>
	<path class="st0" d="M226,102.6c0,2.5-0.6,4.3-1.9,5.4c-1.3,1.1-3.2,1.7-5.8,1.7c-0.9,0-1.9-0.1-2.8-0.2c-0.9-0.2-1.7-0.4-2.4-0.6
		l0.7-3c0.6,0.3,1.3,0.5,2.1,0.6c0.8,0.2,1.6,0.2,2.5,0.2c1.4,0,2.5-0.3,3.1-0.9s0.9-1.5,0.9-2.6v-0.6c-0.4,0.2-0.8,0.4-1.4,0.5
		c-0.6,0.2-1.2,0.3-2,0.3c-1,0-1.9-0.2-2.7-0.5s-1.5-0.8-2.1-1.4s-1-1.4-1.4-2.3s-0.5-2-0.5-3.2c0-1.1,0.2-2.2,0.5-3.1
		s0.8-1.8,1.5-2.4c0.7-0.7,1.5-1.2,2.4-1.6s2-0.6,3.2-0.6s2.3,0.1,3.3,0.3c1,0.2,1.9,0.4,2.7,0.6v13.4H226z M216,96
		c0,1.5,0.3,2.6,1,3.3c0.7,0.7,1.5,1.1,2.6,1.1c0.6,0,1.1-0.1,1.6-0.2c0.5-0.2,0.9-0.3,1.2-0.6v-8c-0.3-0.1-0.6-0.1-0.9-0.2
		c-0.4,0-0.8-0.1-1.4-0.1c-1.3,0-2.3,0.4-3,1.3C216.3,93.5,216,94.6,216,96z"/>
	<path class="st0" d="M234.5,84.1c0,0.7-0.2,1.2-0.7,1.6c-0.4,0.4-0.9,0.6-1.5,0.6s-1.1-0.2-1.6-0.6c-0.4-0.4-0.7-0.9-0.7-1.6
		s0.2-1.2,0.7-1.6c0.4-0.4,1-0.6,1.6-0.6s1.1,0.2,1.5,0.6C234.3,82.9,234.5,83.4,234.5,84.1z M234.1,104.1h-3.6V88.6h3.6V104.1z"/>
	<path class="st0" d="M237.8,96.5c0-1.4,0.2-2.6,0.6-3.6c0.4-1,0.9-1.9,1.6-2.6c0.7-0.7,1.4-1.2,2.3-1.5c0.9-0.3,1.8-0.5,2.7-0.5
		c2.1,0,3.8,0.7,5,2s1.8,3.3,1.8,5.9c0,0.2,0,0.4,0,0.7c0,0.2,0,0.5,0,0.7h-10.2c0.1,1.2,0.5,2.2,1.3,2.9c0.8,0.7,1.9,1,3.4,1
		c0.9,0,1.7-0.1,2.4-0.2c0.7-0.2,1.3-0.3,1.7-0.5l0.5,2.9c-0.2,0.1-0.5,0.2-0.8,0.3c-0.3,0.1-0.7,0.2-1.2,0.3
		c-0.4,0.1-0.9,0.2-1.4,0.2c-0.5,0.1-1,0.1-1.6,0.1c-1.4,0-2.5-0.2-3.6-0.6c-1-0.4-1.8-1-2.5-1.7s-1.1-1.6-1.5-2.5
		C238,98.7,237.8,97.6,237.8,96.5z M248.2,94.9c0-0.5-0.1-1-0.2-1.4c-0.1-0.4-0.3-0.8-0.6-1.2c-0.3-0.3-0.6-0.6-1-0.8
		c-0.4-0.2-0.8-0.3-1.4-0.3c-0.6,0-1,0.1-1.5,0.3c-0.4,0.2-0.8,0.5-1.1,0.8s-0.5,0.7-0.7,1.2c-0.2,0.4-0.3,0.9-0.3,1.3h6.8V94.9z"/>
	<path class="st0" d="M276.4,96.4c0,1.2-0.2,2.3-0.5,3.3s-0.7,1.8-1.3,2.5c-0.6,0.7-1.3,1.3-2.1,1.7c-0.9,0.4-1.8,0.6-2.9,0.6
		c-0.7,0-1.4-0.1-2-0.3c-0.6-0.2-1.1-0.4-1.5-0.6v6h-3.6V89.1c0.7-0.2,1.6-0.4,2.7-0.6s2.2-0.3,3.4-0.3c1.2,0,2.3,0.2,3.3,0.6
		s1.8,0.9,2.5,1.6s1.2,1.5,1.6,2.5C276.2,94,276.4,95.2,276.4,96.4z M272.7,96.5c0-1.6-0.4-2.8-1.1-3.7s-1.9-1.3-3.5-1.3
		c-0.3,0-0.7,0-1.1,0s-0.7,0.1-1.1,0.2v8.9c0.3,0.2,0.7,0.4,1.3,0.6c0.5,0.2,1.1,0.3,1.7,0.3c1.3,0,2.3-0.4,2.9-1.3
		C272.4,99.1,272.7,98,272.7,96.5z"/>
	<path class="st0" d="M294.1,96.4c0,1.2-0.2,2.3-0.5,3.3c-0.4,1-0.9,1.9-1.5,2.6c-0.7,0.7-1.4,1.3-2.4,1.7c-0.9,0.4-1.9,0.6-3,0.6
		s-2.1-0.2-3-0.6s-1.7-0.9-2.3-1.7c-0.7-0.7-1.2-1.6-1.5-2.6c-0.4-1-0.5-2.1-0.5-3.3c0-1.2,0.2-2.3,0.5-3.3c0.4-1,0.9-1.8,1.5-2.6
		c0.7-0.7,1.4-1.3,2.4-1.6c0.9-0.4,1.9-0.6,3-0.6s2.1,0.2,3,0.6s1.7,0.9,2.4,1.6c0.7,0.7,1.2,1.6,1.5,2.6
		C293.9,94,294.1,95.1,294.1,96.4z M290.4,96.4c0-1.5-0.3-2.8-1-3.7c-0.7-0.9-1.6-1.3-2.8-1.3c-1.2,0-2.1,0.4-2.8,1.3
		c-0.7,0.9-1,2.1-1,3.7s0.3,2.8,1,3.7c0.7,0.9,1.6,1.4,2.8,1.4c1.2,0,2.1-0.5,2.8-1.4C290.1,99.2,290.4,97.9,290.4,96.4z"/>
	<path class="st0" d="M310.5,103.6c-0.7,0.2-1.6,0.4-2.7,0.5c-1.1,0.2-2.3,0.3-3.6,0.3c-1.2,0-2.3-0.2-3.1-0.5
		c-0.8-0.4-1.5-0.8-2-1.5c-0.5-0.6-0.9-1.4-1.1-2.3s-0.3-1.8-0.3-2.9v-8.7h3.6v8.1c0,1.7,0.2,2.8,0.7,3.6c0.5,0.7,1.3,1.1,2.5,1.1
		c0.4,0,0.9,0,1.4-0.1c0.5,0,0.8-0.1,1.1-0.1V88.6h3.6v15H310.5z"/>
	<path class="st0" d="M323.9,91.9c-0.3-0.1-0.7-0.2-1.2-0.3c-0.5-0.1-1.1-0.2-1.8-0.2c-0.4,0-0.8,0-1.3,0.1
		c-0.4,0.1-0.8,0.1-0.9,0.2v12.4h-3.6V89.4c0.7-0.3,1.6-0.5,2.6-0.7s2.2-0.3,3.4-0.3c0.2,0,0.5,0,0.8,0s0.6,0.1,0.9,0.1
		s0.6,0.1,0.9,0.2s0.5,0.1,0.7,0.2L323.9,91.9z"/>
	<path class="st0" d="M339.3,104.4c-1.1,0-1.9-0.1-2.6-0.4c-0.7-0.2-1.3-0.5-1.7-0.9c-0.4-0.4-0.7-0.9-0.9-1.5
		c-0.2-0.6-0.3-1.3-0.3-2.1V81.7l3.6-0.6v17.7c0,0.4,0,0.8,0.1,1.1c0.1,0.3,0.2,0.5,0.4,0.8c0.2,0.2,0.4,0.4,0.7,0.5
		c0.3,0.1,0.7,0.2,1.2,0.3L339.3,104.4z"/>
	<path class="st0" d="M347.8,88.3c1.2,0,2.2,0.1,3,0.4s1.5,0.7,1.9,1.2c0.5,0.5,0.8,1.2,1,1.9c0.2,0.8,0.3,1.6,0.3,2.5v9.4
		c-0.6,0.1-1.4,0.3-2.5,0.4c-1.1,0.2-2.4,0.3-3.8,0.3c-0.9,0-1.8-0.1-2.5-0.3c-0.8-0.2-1.4-0.5-2-0.9c-0.5-0.4-1-0.9-1.3-1.5
		s-0.5-1.4-0.5-2.3s0.2-1.6,0.5-2.2s0.8-1.1,1.4-1.5s1.3-0.7,2.1-0.8c0.8-0.2,1.6-0.3,2.4-0.3c0.4,0,0.8,0,1.2,0.1
		c0.4,0,0.9,0.1,1.4,0.3v-0.6c0-0.4,0-0.8-0.1-1.2c-0.1-0.4-0.3-0.7-0.5-1s-0.6-0.5-1-0.7s-0.9-0.2-1.5-0.2c-0.8,0-1.6,0.1-2.3,0.2
		c-0.7,0.1-1.3,0.3-1.7,0.4l-0.4-2.9c0.5-0.2,1.1-0.3,2-0.5C345.9,88.3,346.9,88.3,347.8,88.3z M348.1,101.6c1.1,0,1.9-0.1,2.5-0.2
		v-4c-0.2-0.1-0.5-0.1-0.9-0.2s-0.8-0.1-1.2-0.1c-0.4,0-0.8,0-1.2,0.1c-0.4,0.1-0.8,0.2-1.1,0.3c-0.3,0.2-0.6,0.4-0.8,0.7
		s-0.3,0.6-0.3,1.1c0,0.8,0.3,1.4,0.8,1.8C346.5,101.4,347.2,101.6,348.1,101.6z"/>
	<path class="st0" d="M364.5,96.4c0-1.1,0.2-2.2,0.5-3.2c0.4-1,0.9-1.9,1.5-2.6c0.7-0.7,1.5-1.3,2.4-1.7c0.9-0.4,2-0.6,3.2-0.6
		c1.5,0,2.8,0.3,4.1,0.8l-0.8,2.9c-0.4-0.2-0.9-0.3-1.4-0.4s-1.1-0.2-1.7-0.2c-1.4,0-2.5,0.4-3.2,1.3s-1.1,2.1-1.1,3.7
		c0,1.5,0.3,2.8,1,3.7c0.7,0.9,1.9,1.3,3.5,1.3c0.6,0,1.2-0.1,1.8-0.2c0.6-0.1,1.1-0.3,1.5-0.4l0.5,3c-0.4,0.2-1,0.4-1.8,0.5
		s-1.6,0.2-2.5,0.2c-1.3,0-2.5-0.2-3.4-0.6c-1-0.4-1.8-1-2.4-1.7s-1.1-1.6-1.4-2.6C364.7,98.6,364.5,97.6,364.5,96.4z"/>
	<path class="st0" d="M393,96.4c0,1.2-0.2,2.3-0.5,3.3c-0.4,1-0.9,1.9-1.5,2.6c-0.7,0.7-1.4,1.3-2.4,1.7c-0.9,0.4-1.9,0.6-3,0.6
		s-2.1-0.2-3-0.6s-1.7-0.9-2.3-1.7c-0.7-0.7-1.2-1.6-1.5-2.6c-0.4-1-0.5-2.1-0.5-3.3c0-1.2,0.2-2.3,0.5-3.3c0.4-1,0.9-1.8,1.5-2.6
		c0.7-0.7,1.4-1.3,2.4-1.6c0.9-0.4,1.9-0.6,3-0.6s2.1,0.2,3,0.6s1.7,0.9,2.4,1.6c0.7,0.7,1.2,1.6,1.5,2.6
		C392.9,94,393,95.1,393,96.4z M389.4,96.4c0-1.5-0.3-2.8-1-3.7c-0.7-0.9-1.6-1.3-2.8-1.3s-2.1,0.4-2.8,1.3c-0.7,0.9-1,2.1-1,3.7
		s0.3,2.8,1,3.7c0.7,0.9,1.6,1.4,2.8,1.4s2.1-0.5,2.8-1.4C389,99.2,389.4,97.9,389.4,96.4z"/>
	<path class="st0" d="M396.7,89.1c0.7-0.2,1.6-0.4,2.7-0.6s2.3-0.3,3.7-0.3c1.3,0,2.3,0.2,3.2,0.5c0.8,0.3,1.5,0.8,2,1.5
		c0.5,0.6,0.9,1.4,1.1,2.2c0.2,0.9,0.3,1.8,0.3,2.9v8.7h-3.6v-8c0-0.8-0.1-1.5-0.2-2.1s-0.3-1.1-0.5-1.4c-0.2-0.4-0.6-0.6-1-0.8
		c-0.4-0.2-0.9-0.3-1.6-0.3c-0.5,0-0.9,0-1.4,0.1s-0.9,0.1-1.1,0.1v12.5h-3.6V89.1z"/>
	<path class="st0" d="M417.9,101.5c0.9,0,1.6-0.1,2.1-0.3c0.4-0.2,0.7-0.6,0.7-1.2c0-0.5-0.2-0.9-0.7-1.3c-0.5-0.3-1.2-0.7-2.3-1.1
		c-0.7-0.2-1.2-0.5-1.8-0.8c-0.5-0.3-1-0.6-1.4-0.9c-0.4-0.4-0.7-0.8-0.9-1.3c-0.2-0.5-0.3-1.1-0.3-1.8c0-1.4,0.5-2.5,1.6-3.4
		s2.5-1.2,4.3-1.2c0.9,0,1.8,0.1,2.6,0.3c0.8,0.2,1.5,0.3,1.9,0.5l-0.7,2.9c-0.4-0.2-0.9-0.3-1.5-0.5c-0.6-0.1-1.3-0.2-2.1-0.2
		c-0.7,0-1.3,0.1-1.8,0.4c-0.5,0.2-0.7,0.6-0.7,1.1c0,0.3,0,0.5,0.1,0.7s0.2,0.4,0.5,0.5c0.2,0.2,0.5,0.3,0.9,0.5s0.8,0.3,1.3,0.5
		c0.8,0.3,1.6,0.6,2.2,0.9s1.1,0.7,1.5,1c0.4,0.4,0.7,0.8,0.8,1.3c0.2,0.5,0.3,1.1,0.3,1.8c0,1.5-0.5,2.6-1.6,3.4s-2.7,1.1-4.7,1.1
		c-1.4,0-2.5-0.1-3.3-0.3c-0.8-0.2-1.4-0.4-1.7-0.5l0.6-3c0.5,0.2,1.2,0.4,1.9,0.6C416.1,101.4,417,101.5,417.9,101.5z"/>
	<path class="st0" d="M427.4,84.6L431,84v4.7h5.5v3H431V98c0,1.2,0.2,2.1,0.6,2.7c0.4,0.5,1.1,0.8,2,0.8c0.7,0,1.2-0.1,1.7-0.2
		s0.9-0.3,1.2-0.4l0.6,2.8c-0.4,0.2-1,0.4-1.6,0.5c-0.7,0.2-1.5,0.3-2.4,0.3c-1.1,0-2-0.1-2.8-0.4c-0.7-0.3-1.3-0.7-1.8-1.3
		c-0.4-0.6-0.7-1.2-0.9-2c-0.2-0.8-0.3-1.7-0.3-2.7V84.6H427.4z"/>
	<path class="st0" d="M448.8,91.9c-0.3-0.1-0.7-0.2-1.2-0.3c-0.5-0.1-1.1-0.2-1.8-0.2c-0.4,0-0.8,0-1.3,0.1
		c-0.4,0.1-0.8,0.1-0.9,0.2v12.4H440V89.4c0.7-0.3,1.6-0.5,2.6-0.7s2.2-0.3,3.4-0.3c0.2,0,0.5,0,0.8,0s0.6,0.1,0.9,0.1
		s0.6,0.1,0.9,0.2s0.5,0.1,0.7,0.2L448.8,91.9z"/>
	<path class="st0" d="M464.6,103.6c-0.7,0.2-1.6,0.4-2.7,0.5c-1.1,0.2-2.3,0.3-3.6,0.3c-1.2,0-2.3-0.2-3.1-0.5
		c-0.8-0.4-1.5-0.8-2-1.5c-0.5-0.6-0.9-1.4-1.1-2.3s-0.3-1.8-0.3-2.9v-8.7h3.6v8.1c0,1.7,0.2,2.8,0.7,3.6c0.5,0.7,1.3,1.1,2.5,1.1
		c0.4,0,0.9,0,1.4-0.1c0.5,0,0.8-0.1,1.1-0.1V88.6h3.6v15H464.6z"/>
	<path class="st0" d="M468.3,96.4c0-1.1,0.2-2.2,0.5-3.2c0.4-1,0.9-1.9,1.5-2.6c0.7-0.7,1.5-1.3,2.4-1.7c0.9-0.4,2-0.6,3.2-0.6
		c1.5,0,2.8,0.3,4.1,0.8l-0.8,2.9c-0.4-0.2-0.9-0.3-1.4-0.4s-1.1-0.2-1.7-0.2c-1.4,0-2.5,0.4-3.2,1.3s-1.1,2.1-1.1,3.7
		c0,1.5,0.3,2.8,1,3.7c0.7,0.9,1.9,1.3,3.5,1.3c0.6,0,1.2-0.1,1.8-0.2c0.6-0.1,1.1-0.3,1.5-0.4l0.5,3c-0.4,0.2-1,0.4-1.8,0.5
		c-0.8,0.2-1.6,0.2-2.5,0.2c-1.3,0-2.5-0.2-3.4-0.6c-1-0.4-1.8-1-2.4-1.7s-1.1-1.6-1.4-2.6C468.4,98.6,468.3,97.6,468.3,96.4z"/>
	<path class="st0" d="M482.9,84.6l3.6-0.6v4.7h5.5v3h-5.5V98c0,1.2,0.2,2.1,0.6,2.7c0.4,0.5,1.1,0.8,2,0.8c0.7,0,1.2-0.1,1.7-0.2
		s0.9-0.3,1.2-0.4l0.6,2.8c-0.4,0.2-1,0.4-1.6,0.5c-0.7,0.2-1.5,0.3-2.4,0.3c-1.1,0-2-0.1-2.8-0.4c-0.7-0.3-1.3-0.7-1.8-1.3
		c-0.4-0.6-0.7-1.2-0.9-2c-0.2-0.8-0.3-1.7-0.3-2.7V84.6H482.9z"/>
	<path class="st0" d="M499.5,84.1c0,0.7-0.2,1.2-0.7,1.6c-0.4,0.4-0.9,0.6-1.5,0.6s-1.1-0.2-1.6-0.6s-0.7-0.9-0.7-1.6
		s0.2-1.2,0.7-1.6s1-0.6,1.6-0.6s1.1,0.2,1.5,0.6C499.3,82.9,499.5,83.4,499.5,84.1z M499.1,104.1h-3.6V88.6h3.6V104.1z"/>
	<path class="st0" d="M517.6,96.4c0,1.2-0.2,2.3-0.5,3.3c-0.4,1-0.9,1.9-1.5,2.6c-0.7,0.7-1.4,1.3-2.4,1.7c-0.9,0.4-1.9,0.6-3,0.6
		s-2.1-0.2-3-0.6s-1.7-0.9-2.3-1.7c-0.7-0.7-1.2-1.6-1.5-2.6c-0.4-1-0.5-2.1-0.5-3.3c0-1.2,0.2-2.3,0.5-3.3c0.4-1,0.9-1.8,1.5-2.6
		c0.7-0.7,1.4-1.3,2.4-1.6c0.9-0.4,1.9-0.6,3-0.6s2.1,0.2,3,0.6c0.9,0.4,1.7,0.9,2.4,1.6s1.2,1.6,1.5,2.6
		C517.5,94,517.6,95.1,517.6,96.4z M514,96.4c0-1.5-0.3-2.8-1-3.7c-0.7-0.9-1.6-1.3-2.8-1.3c-1.2,0-2.1,0.4-2.8,1.3
		c-0.7,0.9-1,2.1-1,3.7s0.3,2.8,1,3.7c0.7,0.9,1.6,1.4,2.8,1.4c1.2,0,2.1-0.5,2.8-1.4C513.6,99.2,514,97.9,514,96.4z"/>
	<path class="st0" d="M521.3,89.1c0.7-0.2,1.6-0.4,2.7-0.6c1.1-0.2,2.3-0.3,3.7-0.3c1.3,0,2.3,0.2,3.2,0.5c0.8,0.3,1.5,0.8,2,1.5
		c0.5,0.6,0.9,1.4,1.1,2.2c0.2,0.9,0.3,1.8,0.3,2.9v8.7h-3.6v-8c0-0.8-0.1-1.5-0.2-2.1c-0.1-0.6-0.3-1.1-0.5-1.4
		c-0.2-0.4-0.6-0.6-1-0.8c-0.4-0.2-0.9-0.3-1.6-0.3c-0.5,0-0.9,0-1.4,0.1s-0.9,0.1-1.1,0.1v12.5h-3.6L521.3,89.1L521.3,89.1z"/>
</g>
</svg>
