<?xml version="1.0" encoding="utf-8"?>
<!-- Generator: Adobe Illustrator 26.0.2, SVG Export Plug-In . SVG Version: 6.00 Build 0)  -->
<svg version="1.1" id="Calque_1" xmlns="http://www.w3.org/2000/svg" xmlns:xlink="http://www.w3.org/1999/xlink" x="0px" y="0px"
	 viewBox="0 0 40 40" style="enable-background:new 0 0 40 40;" xml:space="preserve">
<style type="text/css">
	.st0{fill:#FFFFFF;}
	.st1{fill:#5D6061;}
	.st2{fill:#F18A00;}
	.st3{fill:#EC4A47;}
	.st4{fill:none;stroke:#FFFFFF;stroke-miterlimit:10;}
</style>
<circle class="st0" cx="26.61" cy="20.12" r="2.23"/>
<g>
	<path class="st2" d="M28.55,11.63l1.52,1.4c-0.42-4.91-4.97-8.55-9.83-7.82c0.24,0.36,0.49,0.73,0.67,1.15
		C24.18,6.05,27.52,8.17,28.55,11.63L28.55,11.63z"/>
	<g>
		<path class="st3" d="M27.09,6.57c-1.97-1.55-4.49-2.23-6.92-1.87C20,4.73,19.86,4.84,19.79,5s-0.05,0.34,0.04,0.48
			c0.24,0.35,0.46,0.69,0.62,1.07c0.09,0.2,0.29,0.33,0.51,0.3c3.14-0.29,6.19,1.83,7.12,4.92c0.03,0.09,0.07,0.16,0.14,0.23
			l1.52,1.4c0.09,0.09,0.22,0.13,0.34,0.13c0.08,0,0.15-0.02,0.22-0.05c0.19-0.09,0.3-0.29,0.28-0.49
			C30.35,10.48,29.08,8.15,27.09,6.57z"/>
		<path class="st3" d="M14.96,16.09c-0.07-0.21-0.26-0.35-0.48-0.35c-0.39,0-0.78-0.06-1.2-0.12c-0.16-0.02-0.37,0.09-0.48,0.2
			c-0.13,0.13-0.18,0.32-0.13,0.5c0.51,1.72,1.6,3.33,3.07,4.55c0.09,0.08,0.21,0.11,0.32,0.11c0.13,0,0.26-0.05,0.35-0.15
			l0.85-0.85c0.1-0.1,0.16-0.25,0.15-0.39c-0.01-0.15-0.08-0.28-0.2-0.36C16.15,18.46,15.36,17.34,14.96,16.09z"/>
	</g>
</g>
<g>
	<path class="st0" d="M39.59,24.61L39.59,24.61l-2.24-2.97v-6.97c0-0.3-0.24-0.61-0.61-0.61h-3.88c-0.3,0-0.61,0.3-0.61,0.61v2.18
		l-5.22-4.91c-0.24-0.24-0.61-0.24-0.85,0L13.75,24.55c-0.36,0.36-0.12,1.03,0.42,1.03h2.37v10.09h10.6v-9.89
		c0-0.48,0.39-0.86,0.86-0.86h5.8c0.48,0,0.86,0.39,0.86,0.86v9.89h2.13V25.58h2.37C39.59,25.58,39.89,25.03,39.59,24.61z
		 M26.61,23.35c-1.78,0-3.23-1.45-3.23-3.23s1.45-3.23,3.23-3.23s3.23,1.45,3.23,3.23S28.39,23.35,26.61,23.35z"/>
	<path class="st0" d="M28.17,25.96v9.71h5.46v-9.71H28.17z M33.23,31.61c0,0.29-0.23,0.52-0.52,0.52s-0.52-0.23-0.52-0.52v-0.76
		c0-0.29,0.23-0.52,0.52-0.52s0.52,0.23,0.52,0.52V31.61z"/>
</g>
<g>
	<path class="st0" d="M18.48,5.14c-2.12-2.18-5.76-2.18-8.01,0c-1.52,1.58-2.06,3.82-1.4,5.82l-8.55,8.55
		c-0.12,0.12-0.18,0.24-0.18,0.42l0,0l-0.06,2.97c0,0.36,0.3,0.61,0.61,0.61l2.97-0.06c0.24,0,0.49-0.18,0.55-0.42l0.55-2.06
		l1.58-0.18c0.24,0,0.49-0.18,0.49-0.49l0.36-1.4l1.21-0.24c0.24-0.06,0.42-0.24,0.49-0.42l0.3-1.4l1.33-0.3
		c0.12,0,0.24-0.06,0.3-0.18l1.7-1.7c2.06,0.67,4.25,0.12,5.76-1.4c1.09-1.09,1.7-2.49,1.7-4.06C20.18,7.68,19.57,6.23,18.48,5.14z
		 M17.33,10.63c-0.56,0.56-1.3,0.86-2.08,0.86c-0.01,0-0.02,0-0.04,0c-0.77-0.01-1.52-0.32-2.05-0.85c-1.1-1.17-1.09-3.07,0-4.16
		c1.13-1.13,2.95-1.13,4.15-0.01C18.42,7.66,18.42,9.47,17.33,10.63z"/>
	<path class="st0" d="M13.86,7.19c-0.72,0.72-0.72,1.99,0.01,2.76c0.34,0.34,0.83,0.54,1.35,0.55c0.53,0.02,1.02-0.19,1.39-0.56
		c0.72-0.77,0.72-1.98-0.01-2.76C15.82,6.45,14.61,6.44,13.86,7.19z"/>
</g>
</svg>
