<?xml version="1.0" encoding="utf-8"?>
<!-- Generator: Adobe Illustrator 26.0.2, SVG Export Plug-In . SVG Version: 6.00 Build 0)  -->
<svg version="1.1" id="Calque_1" xmlns="http://www.w3.org/2000/svg" xmlns:xlink="http://www.w3.org/1999/xlink" x="0px" y="0px"
	 viewBox="0 0 40 40" style="enable-background:new 0 0 40 40;" xml:space="preserve">
<style type="text/css">
	.st0{fill:#FFFFFF;}
	.st1{fill:#5D6061;}
	.st2{fill:#F18A00;}
	.st3{fill:#EC4A47;}
	.st4{fill:none;stroke:#FFFFFF;stroke-miterlimit:10;}
</style>
<path class="st0" d="M29.22,15.14v2.46c-0.19-0.06-0.39-0.1-0.6-0.1h-2.01c-0.88,0-1.65,0.6-1.85,1.47l-0.27,1.17l-1-0.62
	c-0.76-0.46-1.73-0.35-2.35,0.28l-1.42,1.42c-0.62,0.62-0.74,1.59-0.27,2.34l0.64,1.03l-1.15,0.27c-0.6,0.14-1.07,0.55-1.3,1.09
	l-12.14,0c-1.13,0-2.05-0.92-2.05-2.05v-8.78c0.94,0.76,2.19,1.23,3.56,1.23h1.1v1.14c0,0.39,0.32,0.7,0.7,0.7h2.91
	c0.39,0,0.7-0.32,0.7-0.7l0-1.14h7.84v1.14c0,0.39,0.31,0.7,0.7,0.7h2.91c0.39,0,0.7-0.32,0.7-0.7l0-1.14h1.1
	C27.03,16.36,28.27,15.89,29.22,15.14L29.22,15.14z"/>
<path class="st0" d="M27.17,7.21h-5.51V5.6c0-1.16-0.94-2.1-2.1-2.1H13.1c-1.16,0-2.1,0.94-2.1,2.1v1.6H5.49
	c-1.13,0-2.05,0.92-2.05,2.05V13c0.62,1.15,1.98,1.95,3.56,1.95h1.1v-1.14c0-0.39,0.32-0.7,0.7-0.7h2.91c0.39,0,0.7,0.32,0.7,0.7
	v1.14h7.84v-1.14c0-0.39,0.31-0.7,0.7-0.7h2.91c0.39,0,0.7,0.32,0.7,0.7v1.14h1.1c1.57,0,2.93-0.8,3.55-1.94l0-3.76
	C29.21,8.13,28.3,7.21,27.17,7.21L27.17,7.21z M12.4,5.6c0-0.39,0.31-0.7,0.7-0.7h6.46c0.39,0,0.7,0.31,0.7,0.7v1.6H12.4L12.4,5.6z"
	/>
<path class="st0" d="M23.94,15.83v0.92c0,0.37-0.32,0.68-0.7,0.68h-1.48c-0.39,0-0.7-0.31-0.7-0.68v-0.92l0-0.16v-1.1
	c0-0.37,0.31-0.68,0.7-0.68h1.48c0.39,0,0.7,0.31,0.7,0.68v1.1V15.83z"/>
<path class="st0" d="M11.74,15.83v0.92c0,0.37-0.32,0.68-0.7,0.68H9.55c-0.39,0-0.7-0.31-0.7-0.68v-0.92l0-0.16v-1.1
	c0-0.37,0.31-0.68,0.7-0.68h1.48c0.39,0,0.7,0.31,0.7,0.68v1.1V15.83z"/>
<g>
	<path class="st3" d="M27.79,25.49c-1.25,0-2.23,0.98-2.23,2.23s0.98,2.23,2.23,2.23s2.23-0.98,2.23-2.23S29.04,25.49,27.79,25.49z"
		/>
	<path class="st3" d="M36.18,26.19L36.18,26.19l-1.95-0.47c-0.16-0.04-0.29-0.16-0.35-0.31c-0.06-0.15-0.12-0.3-0.19-0.44
		c-0.07-0.15-0.07-0.33,0.02-0.47l1.04-1.69c0.12-0.2,0.09-0.45-0.07-0.62l-1.41-1.42c-0.16-0.17-0.42-0.2-0.62-0.07l-1.7,1.05
		c-0.14,0.09-0.32,0.09-0.47,0.02c-0.14-0.07-0.29-0.13-0.44-0.18c-0.16-0.06-0.28-0.19-0.32-0.35l-0.45-1.93
		c-0.05-0.23-0.26-0.39-0.49-0.39h-2c-0.23,0-0.44,0.16-0.49,0.39l-0.46,1.95c-0.04,0.16-0.16,0.29-0.31,0.35
		c-0.15,0.06-0.3,0.12-0.44,0.19c-0.15,0.07-0.33,0.07-0.48-0.02l-1.69-1.04c-0.2-0.12-0.45-0.09-0.62,0.07l-1.41,1.42
		c-0.16,0.16-0.19,0.42-0.07,0.62l1.05,1.71c0.09,0.14,0.09,0.32,0.02,0.47c-0.07,0.15-0.13,0.29-0.18,0.45
		c-0.06,0.16-0.19,0.28-0.35,0.32l-1.92,0.46c-0.23,0.05-0.39,0.26-0.39,0.49v2c0,0.23,0.16,0.44,0.39,0.49l2.21,0.52v0
		c0.08,0.24,0.17,0.47,0.28,0.69c0.07,0.15,0.07,0.33-0.02,0.48l-1.04,1.69c-0.12,0.2-0.09,0.45,0.07,0.62l1.42,1.42
		c0.16,0.17,0.42,0.2,0.62,0.07l1.71-1.06c0.14-0.09,0.32-0.09,0.47-0.02c0.14,0.07,0.29,0.13,0.44,0.18
		c0.16,0.06,0.28,0.19,0.32,0.35l0.46,1.93c0.05,0.23,0.26,0.39,0.49,0.39h2c0.23,0,0.44-0.16,0.49-0.39l0.46-1.96
		c0.04-0.16,0.16-0.29,0.31-0.35c0.15-0.06,0.3-0.12,0.44-0.19c0.15-0.07,0.33-0.07,0.48,0.02l1.68,1.04
		c0.2,0.12,0.46,0.09,0.62-0.07l1.41-1.42c0.16-0.16,0.19-0.42,0.07-0.62l-1.2-1.94v0c0.11-0.22,0.21-0.45,0.3-0.68
		c0.06-0.16,0.19-0.28,0.35-0.32l1.93-0.46c0.23-0.05,0.39-0.26,0.39-0.49v-2C36.56,26.45,36.4,26.25,36.18,26.19z M27.79,30.94
		c-1.78,0-3.23-1.45-3.23-3.23s1.45-3.23,3.23-3.23s3.23,1.45,3.23,3.23S29.57,30.94,27.79,30.94z"/>
</g>
</svg>
