<?xml version="1.0" encoding="utf-8"?>
<!-- Generator: Adobe Illustrator 26.0.2, SVG Export Plug-In . SVG Version: 6.00 Build 0)  -->
<svg version="1.1" id="Calque_1" xmlns="http://www.w3.org/2000/svg" xmlns:xlink="http://www.w3.org/1999/xlink" x="0px" y="0px"
	 viewBox="0 0 300 300" style="enable-background:new 0 0 300 300;" xml:space="preserve">
<style type="text/css">
	.st0{fill:url(#SVGID_1_);}
	.st1{fill:#FFFFFF;}
</style>
<g>
	
		<linearGradient id="SVGID_1_" gradientUnits="userSpaceOnUse" x1="-24.2112" y1="-1040.7596" x2="335.1676" y2="-701.7229" gradientTransform="matrix(1 0 0 -1 0 -726.4094)">
		<stop  offset="3.435824e-04" style="stop-color:#EE762E"/>
		<stop  offset="0.5816" style="stop-color:#E73D36"/>
		<stop  offset="1" style="stop-color:#86171F"/>
	</linearGradient>
	<path class="st0" d="M289.99,300H10.01C4.58,300,0,295.42,0,289.99V10.01C0,4.58,4.58,0,10.01,0h279.98
		C295.42,0,300,4.58,300,10.01v279.98C300,295.42,295.42,300,289.99,300z"/>
	<g>
		<g>
			<path class="st1" d="M231.65,97.52l-76.93-44.61c-2.86-1.72-6.58-1.72-9.72,0L68.35,97.52c-2.86,1.72-4.86,4.86-4.86,8.29v88.66
				c0,3.43,1.72,6.58,4.86,8.29l76.93,44.33c1.43,0.86,3.15,1.14,4.86,1.14s3.43-0.29,4.86-1.14l76.93-44.33
				c2.86-1.72,4.86-4.86,4.86-8.29v-88.66C236.51,102.38,234.51,99.24,231.65,97.52z M217.35,188.75l-39.18,22.59v-42.9L191.61,147
				l-31.17,18.02l0,0l0,0v56.34l-10.58,6.01l-67.21-38.61v-77.79l67.21-38.61l67.21,38.61L217.35,188.75L217.35,188.75z"/>
		</g>
		<path class="st1" d="M124.4,156.72l-11.44-6.29c-1.14-0.29-1.72,0.86-1.72,1.72v22.59c0,0.86,0.57,2,1.72,2.57l11.44,6.29
			c1.43,0.57,1.72-0.86,1.72-1.72v-22.59C126.41,158.15,125.55,157.29,124.4,156.72z"/>
	</g>
</g>
</svg>
