<?xml version="1.0" encoding="utf-8"?>
<!-- Generator: Adobe Illustrator 26.0.2, SVG Export Plug-In . SVG Version: 6.00 Build 0)  -->
<svg version="1.1" id="Calque_1" xmlns="http://www.w3.org/2000/svg" xmlns:xlink="http://www.w3.org/1999/xlink" x="0px" y="0px"
	 viewBox="0 0 400 83" style="enable-background:new 0 0 400 83;" xml:space="preserve">
<style type="text/css">
	.st0{fill:url(#SVGID_1_);}
	.st1{fill:#FFFFFF;}
	.st2{fill:#666666;}
</style>
<g>
	<path d="M133.93,36.67c0,4.79-1.8,8.46-5.32,11.3c-3.52,2.7-8.01,4.12-13.48,4.12c-4.42,0-8.46-1.2-12.58-3.59
		c-2.02-1.2-3.59-2.99-4.87-5.32s-2.02-4.79-2.02-7.79l8.98-0.37c0,2.47,1.12,4.57,3.29,5.99c2.17,1.42,4.57,2.17,7.26,2.17
		c5.91,0,8.98-2.1,8.98-6.21c0-3.37-2.1-5.47-5.99-5.99l-8.31-0.9c-4.19-0.67-7.41-2.1-9.88-4.42c-2.4-2.32-3.59-5.69-3.59-10.11
		s1.8-8.01,5.32-10.78s7.86-4.27,13.1-4.27c5.32,0,9.51,1.27,12.8,4.12c3.29,2.84,4.79,6.06,4.79,10.41l-8.91,0.37
		c-0.82-4.19-3.59-6.21-8.31-6.21c-2.99,0-5.09,0.67-6.81,1.87s-2.47,2.7-2.47,4.42c0,1.57,0.52,3.07,1.8,4.12
		c1.2,0.97,2.62,1.5,4.42,1.87l8.09,0.9C129.37,23.2,133.93,28.06,133.93,36.67z"/>
	<path d="M177.5,0.51l-15.27,29.95v20.89h-9.88V30.61L137.08,0.66h10.71l9.43,20.44l9.28-20.51C166.65,0.51,177.5,0.51,177.5,0.51z"
		/>
	<path d="M224.89,0.51v45.67c0,1.5-0.37,2.99-1.42,4.12c-0.97,1.12-2.1,1.57-3.37,1.57c-3.29,0-5.99-1.87-8.09-5.69L194.57,18.7
		v32.64h-9.96V0.51h9.51l20.81,33.24V0.51H224.89z"/>
	<path d="M272.13,51.34h-17.97c-5.69,0-9.81-0.97-12.05-2.99c-2.32-2.02-3.52-5.47-3.52-10.48V0.51h33.46v8.91h-23.58V21.4h16.47
		l-0.82,8.91h-15.8v7.11c0,2.02,0.37,3.37,1.27,4.19c0.9,0.82,2.47,1.12,4.87,1.12h17.29v8.61H272.13z"/>
	<path d="M320.64,51.27h-11.45l-9.96-18.79h-7.11v18.79h-9.96v-39.9c0-3.82,0.9-6.59,2.62-8.31c1.8-1.8,4.72-2.62,8.91-2.62h8.38
		c5.02,0,9.06,1.5,12.05,4.57s4.49,6.96,4.49,11.68c0,3.37-0.9,6.36-2.62,8.91c-1.8,2.47-3.89,4.27-6.59,5.09L320.64,51.27z
		 M306.64,22c1.27-1.42,2.1-3.29,2.1-5.47s-0.67-3.89-2.02-5.32c-1.27-1.27-3.07-2.02-5.32-2.02h-4.87c-2.99,0-4.42,1.5-4.42,4.49
		v10.41h9.28C303.57,24.17,305.3,23.5,306.64,22z"/>
	<path d="M368.48,20.95l-9.06,19.32c-1.27,2.47-2.99,3.82-4.87,3.82c-2.02,0-3.59-1.27-4.87-4.12l-9.28-19.09v30.47h-9.96V0.51h9.81
		l14.37,29.35l14.15-29.35h9.81v50.83h-9.96V20.95H368.48z"/>
	<path d="M399.85,51.34h-9.96V0.51h9.96V51.34z"/>
</g>
<g>
	
		<linearGradient id="SVGID_1_" gradientUnits="userSpaceOnUse" x1="-6.338" y1="-41.2739" x2="87.7386" y2="-130.0255" gradientTransform="matrix(1 0 0 1 0 124)">
		<stop  offset="3.435824e-04" style="stop-color:#EE762E"/>
		<stop  offset="0.5816" style="stop-color:#E73D36"/>
		<stop  offset="1" style="stop-color:#86171F"/>
	</linearGradient>
	<path class="st0" d="M75.91,78.97H2.62C1.2,78.97,0,77.77,0,76.35V3.06c0-1.42,1.2-2.62,2.62-2.62h73.29c1.42,0,2.62,1.2,2.62,2.62
		v73.29C78.53,77.77,77.33,78.97,75.91,78.97z"/>
	<g>
		<g>
			<path class="st1" d="M60.64,25.97L40.5,14.29c-0.75-0.45-1.72-0.45-2.55,0L17.89,25.97c-0.75,0.45-1.27,1.27-1.27,2.17v23.21
				c0,0.9,0.45,1.72,1.27,2.17l20.14,11.6c0.37,0.22,0.82,0.3,1.27,0.3s0.9-0.07,1.27-0.3l20.14-11.6c0.75-0.45,1.27-1.27,1.27-2.17
				V28.14C61.91,27.24,61.39,26.41,60.64,25.97z M56.9,49.85l-10.26,5.91V44.53l3.52-5.61L42,43.63l0,0l0,0v14.75l-2.77,1.57
				L21.64,49.85V29.48l17.59-10.11l17.59,10.11L56.9,49.85L56.9,49.85z"/>
		</g>
		<path class="st1" d="M32.57,41.46l-2.99-1.65c-0.3-0.07-0.45,0.22-0.45,0.45v5.91c0,0.22,0.15,0.52,0.45,0.67l2.99,1.65
			c0.37,0.15,0.45-0.22,0.45-0.45v-5.91C33.09,41.84,32.87,41.61,32.57,41.46z"/>
	</g>
</g>
<g>
	<path class="st2" d="M105.41,76.27c0.97,0,1.72-0.15,2.17-0.52c0.45-0.37,0.67-0.82,0.67-1.42c0-0.37-0.07-0.67-0.22-0.97
		s-0.37-0.52-0.67-0.75s-0.67-0.45-1.05-0.6c-0.45-0.15-0.9-0.37-1.42-0.52c-0.52-0.22-1.05-0.37-1.57-0.6
		c-0.52-0.22-0.9-0.52-1.27-0.82c-0.37-0.37-0.67-0.75-0.9-1.2c-0.22-0.45-0.37-1.05-0.37-1.72c0-1.42,0.45-2.47,1.42-3.29
		c0.97-0.82,2.25-1.2,3.89-1.2c0.97,0,1.8,0.07,2.55,0.3s1.35,0.45,1.8,0.67l-0.9,2.25c-0.52-0.3-1.05-0.52-1.65-0.67
		c-0.6-0.15-1.2-0.22-1.87-0.22c-0.75,0-1.35,0.15-1.8,0.45c-0.45,0.3-0.6,0.75-0.6,1.27c0,0.37,0.07,0.6,0.22,0.9
		c0.15,0.22,0.37,0.45,0.6,0.67c0.22,0.22,0.52,0.37,0.9,0.52c0.37,0.15,0.75,0.3,1.12,0.45c0.75,0.3,1.35,0.52,1.95,0.82
		c0.6,0.3,1.05,0.6,1.42,0.97c0.37,0.37,0.67,0.82,0.9,1.35c0.22,0.52,0.3,1.12,0.3,1.87c0,1.42-0.52,2.47-1.5,3.22
		c-0.97,0.75-2.4,1.12-4.34,1.12c-0.6,0-1.2-0.07-1.72-0.15c-0.52-0.07-0.97-0.15-1.42-0.3c-0.37-0.15-0.75-0.22-1.05-0.37
		s-0.52-0.22-0.67-0.37l0.82-2.25c0.37,0.22,0.97,0.45,1.65,0.67C103.61,76.2,104.44,76.27,105.41,76.27z"/>
	<path class="st2" d="M123,66.77c-1.2,4.42-2.55,8.38-4.19,11.98c-0.3,0.67-0.6,1.2-0.9,1.72c-0.3,0.45-0.67,0.9-1.05,1.2
		c-0.37,0.3-0.82,0.52-1.27,0.67c-0.45,0.15-1.05,0.22-1.65,0.22c-0.45,0-0.82-0.07-1.2-0.15c-0.37-0.07-0.75-0.15-0.9-0.3
		l0.52-2.17c0.52,0.22,1.05,0.3,1.57,0.3c0.67,0,1.27-0.15,1.65-0.52c0.37-0.3,0.75-0.82,1.05-1.57c-0.82-1.65-1.65-3.37-2.47-5.32
		c-0.75-1.95-1.5-3.97-2.1-6.14h2.84c0.15,0.6,0.3,1.27,0.52,2.02c0.22,0.75,0.45,1.42,0.67,2.17c0.22,0.75,0.52,1.5,0.82,2.25
		c0.3,0.75,0.6,1.42,0.82,2.1c0.45-1.35,0.9-2.7,1.35-4.19c0.37-1.5,0.82-2.92,1.12-4.34H123V66.77z"/>
	<path class="st2" d="M125.02,67.14c0.52-0.15,1.2-0.3,2.02-0.45c0.82-0.15,1.72-0.22,2.77-0.22c0.97,0,1.72,0.15,2.4,0.37
		c0.6,0.22,1.12,0.6,1.5,1.12c0.37,0.45,0.67,1.05,0.82,1.65c0.15,0.67,0.22,1.35,0.22,2.17v6.51h-2.7v-5.99
		c0-0.6-0.07-1.12-0.15-1.57c-0.07-0.45-0.22-0.82-0.37-1.05c-0.15-0.3-0.45-0.45-0.75-0.6c-0.3-0.15-0.67-0.22-1.2-0.22
		c-0.37,0-0.67,0-1.05,0.07c-0.37,0.07-0.67,0.07-0.82,0.07v9.36h-2.7V67.14z"/>
	<path class="st2" d="M137.38,72.68c0-1.05,0.15-1.95,0.45-2.7c0.3-0.75,0.67-1.42,1.2-1.95c0.52-0.52,1.05-0.9,1.72-1.12
		s1.35-0.37,2.02-0.37c1.57,0,2.84,0.52,3.74,1.5c0.9,0.97,1.35,2.47,1.35,4.42c0,0.15,0,0.3,0,0.52c0,0.15,0,0.37,0,0.52h-7.64
		c0.07,0.9,0.37,1.65,0.97,2.17c0.6,0.52,1.42,0.75,2.55,0.75c0.67,0,1.27-0.07,1.8-0.15c0.52-0.15,0.97-0.22,1.27-0.37l0.37,2.17
		c-0.15,0.07-0.37,0.15-0.6,0.22c-0.22,0.07-0.52,0.15-0.9,0.22c-0.3,0.07-0.67,0.15-1.05,0.15c-0.37,0.07-0.75,0.07-1.2,0.07
		c-1.05,0-1.87-0.15-2.7-0.45c-0.75-0.3-1.35-0.75-1.87-1.27s-0.82-1.2-1.12-1.87C137.45,74.33,137.38,73.5,137.38,72.68z
		 M145.16,71.48c0-0.37-0.07-0.75-0.15-1.05c-0.07-0.3-0.22-0.6-0.45-0.9c-0.22-0.22-0.45-0.45-0.75-0.6
		c-0.3-0.15-0.6-0.22-1.05-0.22c-0.45,0-0.75,0.07-1.12,0.22c-0.37,0.15-0.6,0.37-0.82,0.6c-0.22,0.22-0.37,0.52-0.52,0.9
		c-0.15,0.3-0.22,0.67-0.22,0.97h5.09V71.48z"/>
	<path class="st2" d="M157.29,69.24c-0.22-0.07-0.52-0.15-0.9-0.22s-0.82-0.15-1.35-0.15c-0.3,0-0.6,0-0.97,0.07
		c-0.3,0.07-0.6,0.07-0.67,0.15v9.28h-2.7V67.37c0.52-0.22,1.2-0.37,1.95-0.52c0.75-0.15,1.65-0.22,2.55-0.22c0.15,0,0.37,0,0.6,0
		s0.45,0.07,0.67,0.07c0.22,0,0.45,0.07,0.67,0.15c0.22,0.07,0.37,0.07,0.52,0.15L157.29,69.24z"/>
	<path class="st2" d="M169.19,77.25c0,1.87-0.45,3.22-1.42,4.04c-0.97,0.82-2.4,1.27-4.34,1.27c-0.67,0-1.42-0.07-2.1-0.15
		c-0.67-0.15-1.27-0.3-1.8-0.45l0.52-2.25c0.45,0.22,0.97,0.37,1.57,0.45c0.6,0.15,1.2,0.15,1.87,0.15c1.05,0,1.87-0.22,2.32-0.67
		c0.45-0.45,0.67-1.12,0.67-1.95v-0.45c-0.3,0.15-0.6,0.3-1.05,0.37c-0.45,0.15-0.9,0.22-1.5,0.22c-0.75,0-1.42-0.15-2.02-0.37
		c-0.6-0.22-1.12-0.6-1.57-1.05c-0.45-0.45-0.75-1.05-1.05-1.72c-0.3-0.67-0.37-1.5-0.37-2.4c0-0.82,0.15-1.65,0.37-2.32
		c0.22-0.67,0.6-1.35,1.12-1.8c0.52-0.52,1.12-0.9,1.8-1.2c0.67-0.3,1.5-0.45,2.4-0.45c0.9,0,1.72,0.07,2.47,0.22
		c0.75,0.15,1.42,0.3,2.02,0.45v10.03H169.19z M161.71,72.31c0,1.12,0.22,1.95,0.75,2.47c0.52,0.52,1.12,0.82,1.95,0.82
		c0.45,0,0.82-0.07,1.2-0.15c0.37-0.15,0.67-0.22,0.9-0.45v-5.99c-0.22-0.07-0.45-0.07-0.67-0.15c-0.3,0-0.6-0.07-1.05-0.07
		c-0.97,0-1.72,0.3-2.25,0.97C161.93,70.44,161.71,71.26,161.71,72.31z"/>
	<path class="st2" d="M175.56,63.4c0,0.52-0.15,0.9-0.52,1.2c-0.3,0.3-0.67,0.45-1.12,0.45s-0.82-0.15-1.2-0.45
		c-0.3-0.3-0.52-0.67-0.52-1.2s0.15-0.9,0.52-1.2c0.3-0.3,0.75-0.45,1.2-0.45s0.82,0.15,1.12,0.45
		C175.41,62.5,175.56,62.87,175.56,63.4z M175.26,78.37h-2.7v-11.6h2.7V78.37z"/>
	<path class="st2" d="M178.03,72.68c0-1.05,0.15-1.95,0.45-2.7c0.3-0.75,0.67-1.42,1.2-1.95c0.52-0.52,1.05-0.9,1.72-1.12
		s1.35-0.37,2.02-0.37c1.57,0,2.84,0.52,3.74,1.5c0.9,0.97,1.35,2.47,1.35,4.42c0,0.15,0,0.3,0,0.52c0,0.15,0,0.37,0,0.52h-7.64
		c0.07,0.9,0.37,1.65,0.97,2.17c0.6,0.52,1.42,0.75,2.55,0.75c0.67,0,1.27-0.07,1.8-0.15c0.52-0.15,0.97-0.22,1.27-0.37l0.37,2.17
		c-0.15,0.07-0.37,0.15-0.6,0.22c-0.22,0.07-0.52,0.15-0.9,0.22c-0.3,0.07-0.67,0.15-1.05,0.15c-0.37,0.07-0.75,0.07-1.2,0.07
		c-1.05,0-1.87-0.15-2.7-0.45c-0.75-0.3-1.35-0.75-1.87-1.27s-0.82-1.2-1.12-1.87C178.18,74.33,178.03,73.5,178.03,72.68z
		 M185.81,71.48c0-0.37-0.07-0.75-0.15-1.05c-0.07-0.3-0.22-0.6-0.45-0.9c-0.22-0.22-0.45-0.45-0.75-0.6
		c-0.3-0.15-0.6-0.22-1.05-0.22c-0.45,0-0.75,0.07-1.12,0.22c-0.3,0.15-0.6,0.37-0.82,0.6c-0.22,0.22-0.37,0.52-0.52,0.9
		c-0.15,0.3-0.22,0.67-0.22,0.97h5.09V71.48z"/>
	<path class="st2" d="M206.92,72.61c0,0.9-0.15,1.72-0.37,2.47c-0.22,0.75-0.52,1.35-0.97,1.87c-0.45,0.52-0.97,0.97-1.57,1.27
		c-0.67,0.3-1.35,0.45-2.17,0.45c-0.52,0-1.05-0.07-1.5-0.22s-0.82-0.3-1.12-0.45v4.49h-2.7V67.14c0.52-0.15,1.2-0.3,2.02-0.45
		s1.65-0.22,2.55-0.22c0.9,0,1.72,0.15,2.47,0.45s1.35,0.67,1.87,1.2c0.52,0.52,0.9,1.12,1.2,1.87
		C206.78,70.81,206.92,71.71,206.92,72.61z M204.15,72.68c0-1.2-0.3-2.1-0.82-2.77c-0.52-0.67-1.42-0.97-2.62-0.97
		c-0.22,0-0.52,0-0.82,0s-0.52,0.07-0.82,0.15v6.66c0.22,0.15,0.52,0.3,0.97,0.45c0.37,0.15,0.82,0.22,1.27,0.22
		c0.97,0,1.72-0.3,2.17-0.97C203.93,74.63,204.15,73.8,204.15,72.68z"/>
	<path class="st2" d="M220.18,72.61c0,0.9-0.15,1.72-0.37,2.47c-0.3,0.75-0.67,1.42-1.12,1.95c-0.52,0.52-1.05,0.97-1.8,1.27
		c-0.67,0.3-1.42,0.45-2.25,0.45c-0.82,0-1.57-0.15-2.25-0.45c-0.67-0.3-1.27-0.67-1.72-1.27c-0.52-0.52-0.9-1.2-1.12-1.95
		c-0.3-0.75-0.37-1.57-0.37-2.47c0-0.9,0.15-1.72,0.37-2.47c0.3-0.75,0.67-1.35,1.12-1.95c0.52-0.52,1.05-0.97,1.8-1.2
		c0.67-0.3,1.42-0.45,2.25-0.45s1.57,0.15,2.25,0.45c0.67,0.3,1.27,0.67,1.8,1.2s0.9,1.2,1.12,1.95
		C220.03,70.81,220.18,71.63,220.18,72.61z M217.41,72.61c0-1.12-0.22-2.1-0.75-2.77c-0.52-0.67-1.2-0.97-2.1-0.97
		c-0.9,0-1.57,0.3-2.1,0.97c-0.52,0.67-0.75,1.57-0.75,2.77s0.22,2.1,0.75,2.77c0.52,0.67,1.2,1.05,2.1,1.05
		c0.9,0,1.57-0.37,2.1-1.05C217.18,74.7,217.41,73.73,217.41,72.61z"/>
	<path class="st2" d="M232.45,78c-0.52,0.15-1.2,0.3-2.02,0.37c-0.82,0.15-1.72,0.22-2.7,0.22c-0.9,0-1.72-0.15-2.32-0.37
		c-0.6-0.3-1.12-0.6-1.5-1.12c-0.37-0.45-0.67-1.05-0.82-1.72c-0.15-0.67-0.22-1.35-0.22-2.17v-6.51h2.7v6.06
		c0,1.27,0.15,2.1,0.52,2.7c0.37,0.52,0.97,0.82,1.87,0.82c0.3,0,0.67,0,1.05-0.07c0.37,0,0.6-0.07,0.82-0.07v-9.36h2.7V78H232.45z"
		/>
	<path class="st2" d="M242.49,69.24c-0.22-0.07-0.52-0.15-0.9-0.22c-0.37-0.07-0.82-0.15-1.35-0.15c-0.3,0-0.6,0-0.97,0.07
		c-0.3,0.07-0.6,0.07-0.67,0.15v9.28h-2.7V67.37c0.52-0.22,1.2-0.37,1.95-0.52s1.65-0.22,2.55-0.22c0.15,0,0.37,0,0.6,0
		s0.45,0.07,0.67,0.07c0.22,0,0.45,0.07,0.67,0.15c0.22,0.07,0.37,0.07,0.52,0.15L242.49,69.24z"/>
	<path class="st2" d="M254.01,78.6c-0.82,0-1.42-0.07-1.95-0.3c-0.52-0.15-0.97-0.37-1.27-0.67c-0.3-0.3-0.52-0.67-0.67-1.12
		c-0.15-0.45-0.22-0.97-0.22-1.57V61.6l2.7-0.45V74.4c0,0.3,0,0.6,0.07,0.82c0.07,0.22,0.15,0.37,0.3,0.6
		c0.15,0.15,0.3,0.3,0.52,0.37c0.22,0.07,0.52,0.15,0.9,0.22L254.01,78.6z"/>
	<path class="st2" d="M260.38,66.54c0.9,0,1.65,0.07,2.25,0.3s1.12,0.52,1.42,0.9c0.37,0.37,0.6,0.9,0.75,1.42
		c0.15,0.6,0.22,1.2,0.22,1.87v7.04c-0.45,0.07-1.05,0.22-1.87,0.3c-0.82,0.15-1.8,0.22-2.84,0.22c-0.67,0-1.35-0.07-1.87-0.22
		c-0.6-0.15-1.05-0.37-1.5-0.67c-0.37-0.3-0.75-0.67-0.97-1.12c-0.22-0.45-0.37-1.05-0.37-1.72c0-0.67,0.15-1.2,0.37-1.65
		c0.22-0.45,0.6-0.82,1.05-1.12c0.45-0.3,0.97-0.52,1.57-0.6c0.6-0.15,1.2-0.22,1.8-0.22c0.3,0,0.6,0,0.9,0.07
		c0.3,0,0.67,0.07,1.05,0.22v-0.45c0-0.3,0-0.6-0.07-0.9c-0.07-0.3-0.22-0.52-0.37-0.75c-0.15-0.22-0.45-0.37-0.75-0.52
		c-0.3-0.15-0.67-0.15-1.12-0.15c-0.6,0-1.2,0.07-1.72,0.15s-0.97,0.22-1.27,0.3l-0.3-2.17c0.37-0.15,0.82-0.22,1.5-0.37
		C258.96,66.54,259.7,66.54,260.38,66.54z M260.6,76.5c0.82,0,1.42-0.07,1.87-0.15v-2.99c-0.15-0.07-0.37-0.07-0.67-0.15
		c-0.3-0.07-0.6-0.07-0.9-0.07s-0.6,0-0.9,0.07c-0.3,0.07-0.6,0.15-0.82,0.22c-0.22,0.15-0.45,0.3-0.6,0.52
		c-0.15,0.22-0.22,0.45-0.22,0.82c0,0.6,0.22,1.05,0.6,1.35C259.4,76.35,259.93,76.5,260.6,76.5z"/>
	<path class="st2" d="M272.88,72.61c0-0.82,0.15-1.65,0.37-2.4c0.3-0.75,0.67-1.42,1.12-1.95c0.52-0.52,1.12-0.97,1.8-1.27
		c0.67-0.3,1.5-0.45,2.4-0.45c1.12,0,2.1,0.22,3.07,0.6l-0.6,2.17c-0.3-0.15-0.67-0.22-1.05-0.3c-0.37-0.07-0.82-0.15-1.27-0.15
		c-1.05,0-1.87,0.3-2.4,0.97c-0.52,0.67-0.82,1.57-0.82,2.77c0,1.12,0.22,2.1,0.75,2.77c0.52,0.67,1.42,0.97,2.62,0.97
		c0.45,0,0.9-0.07,1.35-0.15c0.45-0.07,0.82-0.22,1.12-0.3l0.37,2.25c-0.3,0.15-0.75,0.3-1.35,0.37c-0.6,0.07-1.2,0.15-1.87,0.15
		c-0.97,0-1.87-0.15-2.55-0.45c-0.75-0.3-1.35-0.75-1.8-1.27s-0.82-1.2-1.05-1.95C273.03,74.25,272.88,73.5,272.88,72.61z"/>
	<path class="st2" d="M294.22,72.61c0,0.9-0.15,1.72-0.37,2.47c-0.3,0.75-0.67,1.42-1.12,1.95c-0.52,0.52-1.05,0.97-1.8,1.27
		c-0.67,0.3-1.42,0.45-2.25,0.45c-0.82,0-1.57-0.15-2.25-0.45c-0.67-0.3-1.27-0.67-1.72-1.27c-0.52-0.52-0.9-1.2-1.12-1.95
		c-0.3-0.75-0.37-1.57-0.37-2.47c0-0.9,0.15-1.72,0.37-2.47c0.3-0.75,0.67-1.35,1.12-1.95c0.52-0.52,1.05-0.97,1.8-1.2
		c0.67-0.3,1.42-0.45,2.25-0.45s1.57,0.15,2.25,0.45c0.67,0.3,1.27,0.67,1.8,1.2c0.52,0.52,0.9,1.2,1.12,1.95
		C294.14,70.81,294.22,71.63,294.22,72.61z M291.52,72.61c0-1.12-0.22-2.1-0.75-2.77c-0.52-0.67-1.2-0.97-2.1-0.97
		c-0.9,0-1.57,0.3-2.1,0.97c-0.52,0.67-0.75,1.57-0.75,2.77s0.22,2.1,0.75,2.77c0.52,0.67,1.2,1.05,2.1,1.05
		c0.9,0,1.57-0.37,2.1-1.05C291.22,74.7,291.52,73.73,291.52,72.61z"/>
	<path class="st2" d="M296.99,67.14c0.52-0.15,1.2-0.3,2.02-0.45c0.82-0.15,1.72-0.22,2.77-0.22c0.97,0,1.72,0.15,2.4,0.37
		c0.6,0.22,1.12,0.6,1.5,1.12c0.37,0.45,0.67,1.05,0.82,1.65c0.15,0.67,0.22,1.35,0.22,2.17v6.51h-2.7v-5.99
		c0-0.6-0.07-1.12-0.15-1.57c-0.07-0.45-0.22-0.82-0.37-1.05c-0.15-0.3-0.45-0.45-0.75-0.6c-0.3-0.15-0.67-0.22-1.2-0.22
		c-0.37,0-0.67,0-1.05,0.07c-0.37,0.07-0.67,0.07-0.82,0.07v9.36h-2.7V67.14z"/>
	<path class="st2" d="M312.86,76.42c0.67,0,1.2-0.07,1.57-0.22c0.3-0.15,0.52-0.45,0.52-0.9c0-0.37-0.15-0.67-0.52-0.97
		c-0.37-0.22-0.9-0.52-1.72-0.82c-0.52-0.15-0.9-0.37-1.35-0.6c-0.37-0.22-0.75-0.45-1.05-0.67c-0.3-0.3-0.52-0.6-0.67-0.97
		c-0.15-0.37-0.22-0.82-0.22-1.35c0-1.05,0.37-1.87,1.2-2.55s1.87-0.9,3.22-0.9c0.67,0,1.35,0.07,1.95,0.22
		c0.6,0.15,1.12,0.22,1.42,0.37l-0.52,2.17c-0.3-0.15-0.67-0.22-1.12-0.37c-0.45-0.07-0.97-0.15-1.57-0.15
		c-0.52,0-0.97,0.07-1.35,0.3c-0.37,0.15-0.52,0.45-0.52,0.82c0,0.22,0,0.37,0.07,0.52s0.15,0.3,0.37,0.37
		c0.15,0.15,0.37,0.22,0.67,0.37c0.3,0.15,0.6,0.22,0.97,0.37c0.6,0.22,1.2,0.45,1.65,0.67c0.45,0.22,0.82,0.52,1.12,0.75
		c0.3,0.3,0.52,0.6,0.6,0.97c0.15,0.37,0.22,0.82,0.22,1.35c0,1.12-0.37,1.95-1.2,2.55s-2.02,0.82-3.52,0.82
		c-1.05,0-1.87-0.07-2.47-0.22c-0.6-0.15-1.05-0.3-1.27-0.37l0.45-2.25c0.37,0.15,0.9,0.3,1.42,0.45
		C311.51,76.35,312.18,76.42,312.86,76.42z"/>
	<path class="st2" d="M319.97,63.77l2.7-0.45v3.52h4.12v2.25h-4.12v4.72c0,0.9,0.15,1.57,0.45,2.02c0.3,0.37,0.82,0.6,1.5,0.6
		c0.52,0,0.9-0.07,1.27-0.15c0.37-0.07,0.67-0.22,0.9-0.3l0.45,2.1c-0.3,0.15-0.75,0.3-1.2,0.37c-0.52,0.15-1.12,0.22-1.8,0.22
		c-0.82,0-1.5-0.07-2.1-0.3c-0.52-0.22-0.97-0.52-1.35-0.97c-0.3-0.45-0.52-0.9-0.67-1.5c-0.15-0.6-0.22-1.27-0.22-2.02V63.77
		H319.97z"/>
	<path class="st2" d="M335.99,69.24c-0.22-0.07-0.52-0.15-0.9-0.22s-0.82-0.15-1.35-0.15c-0.3,0-0.6,0-0.97,0.07
		c-0.3,0.07-0.6,0.07-0.67,0.15v9.28h-2.7V67.37c0.52-0.22,1.2-0.37,1.95-0.52s1.65-0.22,2.55-0.22c0.15,0,0.37,0,0.6,0
		s0.45,0.07,0.67,0.07c0.22,0,0.45,0.07,0.67,0.15c0.22,0.07,0.37,0.07,0.52,0.15L335.99,69.24z"/>
	<path class="st2" d="M347.82,78c-0.52,0.15-1.2,0.3-2.02,0.37c-0.82,0.15-1.72,0.22-2.7,0.22c-0.9,0-1.72-0.15-2.32-0.37
		c-0.6-0.3-1.12-0.6-1.5-1.12c-0.37-0.45-0.67-1.05-0.82-1.72c-0.15-0.67-0.22-1.35-0.22-2.17v-6.51h2.7v6.06
		c0,1.27,0.15,2.1,0.52,2.7c0.37,0.52,0.97,0.82,1.87,0.82c0.3,0,0.67,0,1.05-0.07c0.37,0,0.6-0.07,0.82-0.07v-9.36h2.7V78H347.82z"
		/>
	<path class="st2" d="M350.59,72.61c0-0.82,0.15-1.65,0.37-2.4c0.3-0.75,0.67-1.42,1.12-1.95c0.52-0.52,1.12-0.97,1.8-1.27
		c0.67-0.3,1.5-0.45,2.4-0.45c1.12,0,2.1,0.22,3.07,0.6l-0.6,2.17c-0.3-0.15-0.67-0.22-1.05-0.3c-0.37-0.07-0.82-0.15-1.27-0.15
		c-1.05,0-1.87,0.3-2.4,0.97c-0.52,0.67-0.82,1.57-0.82,2.77c0,1.12,0.22,2.1,0.75,2.77c0.52,0.67,1.42,0.97,2.62,0.97
		c0.45,0,0.9-0.07,1.35-0.15c0.45-0.07,0.82-0.22,1.12-0.3l0.37,2.25c-0.3,0.15-0.75,0.3-1.35,0.37c-0.6,0.15-1.2,0.15-1.87,0.15
		c-0.97,0-1.87-0.15-2.55-0.45c-0.75-0.3-1.35-0.75-1.8-1.27s-0.82-1.2-1.05-1.95C350.66,74.25,350.59,73.5,350.59,72.61z"/>
	<path class="st2" d="M361.52,63.77l2.7-0.45v3.52h4.12v2.25h-4.12v4.72c0,0.9,0.15,1.57,0.45,2.02c0.3,0.37,0.82,0.6,1.5,0.6
		c0.52,0,0.9-0.07,1.27-0.15c0.37-0.07,0.67-0.22,0.9-0.3l0.45,2.1c-0.3,0.15-0.75,0.3-1.2,0.37c-0.52,0.15-1.12,0.22-1.8,0.22
		c-0.82,0-1.5-0.07-2.1-0.3c-0.52-0.22-0.97-0.52-1.35-0.97c-0.3-0.45-0.52-0.9-0.67-1.5c-0.15-0.6-0.22-1.27-0.22-2.02V63.77
		H361.52z"/>
	<path class="st2" d="M373.95,63.4c0,0.52-0.15,0.9-0.52,1.2c-0.3,0.3-0.67,0.45-1.12,0.45c-0.45,0-0.82-0.15-1.2-0.45
		s-0.52-0.67-0.52-1.2s0.15-0.9,0.52-1.2c0.37-0.3,0.75-0.45,1.2-0.45c0.45,0,0.82,0.15,1.12,0.45
		C373.8,62.5,373.95,62.87,373.95,63.4z M373.65,78.37h-2.7v-11.6h2.7V78.37z"/>
	<path class="st2" d="M387.5,72.61c0,0.9-0.15,1.72-0.37,2.47c-0.3,0.75-0.67,1.42-1.12,1.95c-0.52,0.52-1.05,0.97-1.8,1.27
		c-0.67,0.3-1.42,0.45-2.25,0.45c-0.82,0-1.57-0.15-2.25-0.45c-0.67-0.3-1.27-0.67-1.72-1.27c-0.52-0.52-0.9-1.2-1.12-1.95
		c-0.3-0.75-0.37-1.57-0.37-2.47c0-0.9,0.15-1.72,0.37-2.47c0.3-0.75,0.67-1.35,1.12-1.95c0.52-0.52,1.05-0.97,1.8-1.2
		c0.67-0.3,1.42-0.45,2.25-0.45s1.57,0.15,2.25,0.45c0.67,0.3,1.27,0.67,1.8,1.2s0.9,1.2,1.12,1.95
		C387.42,70.81,387.5,71.63,387.5,72.61z M384.8,72.61c0-1.12-0.22-2.1-0.75-2.77c-0.52-0.67-1.2-0.97-2.1-0.97
		c-0.9,0-1.57,0.3-2.1,0.97s-0.75,1.57-0.75,2.77s0.22,2.1,0.75,2.77c0.52,0.67,1.2,1.05,2.1,1.05c0.9,0,1.57-0.37,2.1-1.05
		C384.5,74.7,384.8,73.73,384.8,72.61z"/>
	<path class="st2" d="M390.27,67.14c0.52-0.15,1.2-0.3,2.02-0.45c0.82-0.15,1.72-0.22,2.77-0.22c0.97,0,1.72,0.15,2.4,0.37
		c0.6,0.22,1.12,0.6,1.5,1.12c0.37,0.45,0.67,1.05,0.82,1.65c0.15,0.67,0.22,1.35,0.22,2.17v6.51h-2.7v-5.99
		c0-0.6-0.07-1.12-0.15-1.57c-0.07-0.45-0.22-0.82-0.37-1.05c-0.15-0.3-0.45-0.45-0.75-0.6c-0.3-0.15-0.67-0.22-1.2-0.22
		c-0.37,0-0.67,0-1.05,0.07c-0.37,0.07-0.67,0.07-0.82,0.07v9.36h-2.7L390.27,67.14L390.27,67.14z"/>
</g>
</svg>
